<?xml version="1.0" encoding="utf-8" standalone="no"?>
<!DOCTYPE svg PUBLIC "-//W3C//DTD SVG 1.1//EN"
  "http://www.w3.org/Graphics/SVG/1.1/DTD/svg11.dtd">
<svg xmlns:xlink="http://www.w3.org/1999/xlink" width="460.8pt" height="345.6pt" viewBox="0 0 460.8 345.6" xmlns="http://www.w3.org/2000/svg" version="1.1">
 <metadata>
  <rdf:RDF xmlns:dc="http://purl.org/dc/elements/1.1/" xmlns:cc="http://creativecommons.org/ns#" xmlns:rdf="http://www.w3.org/1999/02/22-rdf-syntax-ns#">
   <cc:Work>
    <dc:type rdf:resource="http://purl.org/dc/dcmitype/StillImage"/>
    <dc:date>2022-11-13T01:31:14.381853</dc:date>
    <dc:format>image/svg+xml</dc:format>
    <dc:creator>
     <cc:Agent>
      <dc:title>Matplotlib v3.6.2, https://matplotlib.org/</dc:title>
     </cc:Agent>
    </dc:creator>
   </cc:Work>
  </rdf:RDF>
 </metadata>
 <defs>
  <style type="text/css">*{stroke-linejoin: round; stroke-linecap: butt}</style>
 </defs>
 <g id="figure_1">
  <g id="patch_1">
   <path d="M 0 345.6 
L 460.8 345.6 
L 460.8 0 
L 0 0 
z
" style="fill: #808080"/>
  </g>
  <g id="axes_1">
   <g id="patch_2">
    <path d="M 57.6 119.740235 
L 414.72 119.740235 
L 414.72 41.472 
L 57.6 41.472 
z
" style="fill: #ffffff"/>
   </g>
   <g id="PathCollection_1">
    <defs>
     <path id="m7efe083b25" d="M 0 -3 
L -0.673542 -0.927051 
L -2.85317 -0.927051 
L -1.089814 0.354102 
L -1.763356 2.427051 
L -0 1.145898 
L 1.763356 2.427051 
L 1.089814 0.354102 
L 2.85317 -0.927051 
L 0.673542 -0.927051 
z
" style="stroke: #008000"/>
    </defs>
    <g clip-path="url(#p7c8ee250b7)">
     <use xlink:href="#m7efe083b25" x="73.832727" y="68.551281" style="fill: #008000; stroke: #008000"/>
     <use xlink:href="#m7efe083b25" x="90.065455" y="78.547975" style="fill: #008000; stroke: #008000"/>
     <use xlink:href="#m7efe083b25" x="106.298182" y="87.368587" style="fill: #008000; stroke: #008000"/>
     <use xlink:href="#m7efe083b25" x="122.530909" y="95.013118" style="fill: #008000; stroke: #008000"/>
     <use xlink:href="#m7efe083b25" x="138.763636" y="101.481567" style="fill: #008000; stroke: #008000"/>
     <use xlink:href="#m7efe083b25" x="154.996364" y="106.773935" style="fill: #008000; stroke: #008000"/>
     <use xlink:href="#m7efe083b25" x="171.229091" y="110.890221" style="fill: #008000; stroke: #008000"/>
     <use xlink:href="#m7efe083b25" x="187.461818" y="113.830425" style="fill: #008000; stroke: #008000"/>
     <use xlink:href="#m7efe083b25" x="203.694545" y="115.594547" style="fill: #008000; stroke: #008000"/>
     <use xlink:href="#m7efe083b25" x="219.927273" y="116.182588" style="fill: #008000; stroke: #008000"/>
     <use xlink:href="#m7efe083b25" x="236.16" y="115.594547" style="fill: #008000; stroke: #008000"/>
     <use xlink:href="#m7efe083b25" x="252.392727" y="113.830425" style="fill: #008000; stroke: #008000"/>
     <use xlink:href="#m7efe083b25" x="268.625455" y="110.890221" style="fill: #008000; stroke: #008000"/>
     <use xlink:href="#m7efe083b25" x="284.858182" y="106.773935" style="fill: #008000; stroke: #008000"/>
     <use xlink:href="#m7efe083b25" x="301.090909" y="101.481567" style="fill: #008000; stroke: #008000"/>
     <use xlink:href="#m7efe083b25" x="317.323636" y="95.013118" style="fill: #008000; stroke: #008000"/>
     <use xlink:href="#m7efe083b25" x="333.556364" y="87.368587" style="fill: #008000; stroke: #008000"/>
     <use xlink:href="#m7efe083b25" x="349.789091" y="78.547975" style="fill: #008000; stroke: #008000"/>
     <use xlink:href="#m7efe083b25" x="366.021818" y="68.551281" style="fill: #008000; stroke: #008000"/>
     <use xlink:href="#m7efe083b25" x="382.254545" y="57.378505" style="fill: #008000; stroke: #008000"/>
     <use xlink:href="#m7efe083b25" x="398.487273" y="45.029647" style="fill: #008000; stroke: #008000"/>
    </g>
   </g>
   <g id="matplotlib.axis_1">
    <g id="xtick_1">
     <g id="line2d_1">
      <defs>
       <path id="mc8c037ed81" d="M 0 0 
L 0 3.5 
" style="stroke: #000000; stroke-width: 0.8"/>
      </defs>
      <g>
       <use xlink:href="#mc8c037ed81" x="73.832727" y="119.740235" style="stroke: #000000; stroke-width: 0.8"/>
      </g>
     </g>
     <g id="text_1">
      <!-- −10.0 -->
      <g transform="translate(58.510071 134.338673) scale(0.1 -0.1)">
       <defs>
        <path id="DejaVuSans-2212" d="M 678 2272 
L 4684 2272 
L 4684 1741 
L 678 1741 
L 678 2272 
z
" transform="scale(0.015625)"/>
        <path id="DejaVuSans-31" d="M 794 531 
L 1825 531 
L 1825 4091 
L 703 3866 
L 703 4441 
L 1819 4666 
L 2450 4666 
L 2450 531 
L 3481 531 
L 3481 0 
L 794 0 
L 794 531 
z
" transform="scale(0.015625)"/>
        <path id="DejaVuSans-30" d="M 2034 4250 
Q 1547 4250 1301 3770 
Q 1056 3291 1056 2328 
Q 1056 1369 1301 889 
Q 1547 409 2034 409 
Q 2525 409 2770 889 
Q 3016 1369 3016 2328 
Q 3016 3291 2770 3770 
Q 2525 4250 2034 4250 
z
M 2034 4750 
Q 2819 4750 3233 4129 
Q 3647 3509 3647 2328 
Q 3647 1150 3233 529 
Q 2819 -91 2034 -91 
Q 1250 -91 836 529 
Q 422 1150 422 2328 
Q 422 3509 836 4129 
Q 1250 4750 2034 4750 
z
" transform="scale(0.015625)"/>
        <path id="DejaVuSans-2e" d="M 684 794 
L 1344 794 
L 1344 0 
L 684 0 
L 684 794 
z
" transform="scale(0.015625)"/>
       </defs>
       <use xlink:href="#DejaVuSans-2212"/>
       <use xlink:href="#DejaVuSans-31" x="83.789062"/>
       <use xlink:href="#DejaVuSans-30" x="147.412109"/>
       <use xlink:href="#DejaVuSans-2e" x="211.035156"/>
       <use xlink:href="#DejaVuSans-30" x="242.822266"/>
      </g>
     </g>
    </g>
    <g id="xtick_2">
     <g id="line2d_2">
      <g>
       <use xlink:href="#mc8c037ed81" x="114.414545" y="119.740235" style="stroke: #000000; stroke-width: 0.8"/>
      </g>
     </g>
     <g id="text_2">
      <!-- −7.5 -->
      <g transform="translate(102.273139 134.338673) scale(0.1 -0.1)">
       <defs>
        <path id="DejaVuSans-37" d="M 525 4666 
L 3525 4666 
L 3525 4397 
L 1831 0 
L 1172 0 
L 2766 4134 
L 525 4134 
L 525 4666 
z
" transform="scale(0.015625)"/>
        <path id="DejaVuSans-35" d="M 691 4666 
L 3169 4666 
L 3169 4134 
L 1269 4134 
L 1269 2991 
Q 1406 3038 1543 3061 
Q 1681 3084 1819 3084 
Q 2600 3084 3056 2656 
Q 3513 2228 3513 1497 
Q 3513 744 3044 326 
Q 2575 -91 1722 -91 
Q 1428 -91 1123 -41 
Q 819 9 494 109 
L 494 744 
Q 775 591 1075 516 
Q 1375 441 1709 441 
Q 2250 441 2565 725 
Q 2881 1009 2881 1497 
Q 2881 1984 2565 2268 
Q 2250 2553 1709 2553 
Q 1456 2553 1204 2497 
Q 953 2441 691 2322 
L 691 4666 
z
" transform="scale(0.015625)"/>
       </defs>
       <use xlink:href="#DejaVuSans-2212"/>
       <use xlink:href="#DejaVuSans-37" x="83.789062"/>
       <use xlink:href="#DejaVuSans-2e" x="147.412109"/>
       <use xlink:href="#DejaVuSans-35" x="179.199219"/>
      </g>
     </g>
    </g>
    <g id="xtick_3">
     <g id="line2d_3">
      <g>
       <use xlink:href="#mc8c037ed81" x="154.996364" y="119.740235" style="stroke: #000000; stroke-width: 0.8"/>
      </g>
     </g>
     <g id="text_3">
      <!-- −5.0 -->
      <g transform="translate(142.854957 134.338673) scale(0.1 -0.1)">
       <use xlink:href="#DejaVuSans-2212"/>
       <use xlink:href="#DejaVuSans-35" x="83.789062"/>
       <use xlink:href="#DejaVuSans-2e" x="147.412109"/>
       <use xlink:href="#DejaVuSans-30" x="179.199219"/>
      </g>
     </g>
    </g>
    <g id="xtick_4">
     <g id="line2d_4">
      <g>
       <use xlink:href="#mc8c037ed81" x="195.578182" y="119.740235" style="stroke: #000000; stroke-width: 0.8"/>
      </g>
     </g>
     <g id="text_4">
      <!-- −2.5 -->
      <g transform="translate(183.436776 134.338673) scale(0.1 -0.1)">
       <defs>
        <path id="DejaVuSans-32" d="M 1228 531 
L 3431 531 
L 3431 0 
L 469 0 
L 469 531 
Q 828 903 1448 1529 
Q 2069 2156 2228 2338 
Q 2531 2678 2651 2914 
Q 2772 3150 2772 3378 
Q 2772 3750 2511 3984 
Q 2250 4219 1831 4219 
Q 1534 4219 1204 4116 
Q 875 4013 500 3803 
L 500 4441 
Q 881 4594 1212 4672 
Q 1544 4750 1819 4750 
Q 2544 4750 2975 4387 
Q 3406 4025 3406 3419 
Q 3406 3131 3298 2873 
Q 3191 2616 2906 2266 
Q 2828 2175 2409 1742 
Q 1991 1309 1228 531 
z
" transform="scale(0.015625)"/>
       </defs>
       <use xlink:href="#DejaVuSans-2212"/>
       <use xlink:href="#DejaVuSans-32" x="83.789062"/>
       <use xlink:href="#DejaVuSans-2e" x="147.412109"/>
       <use xlink:href="#DejaVuSans-35" x="179.199219"/>
      </g>
     </g>
    </g>
    <g id="xtick_5">
     <g id="line2d_5">
      <g>
       <use xlink:href="#mc8c037ed81" x="236.16" y="119.740235" style="stroke: #000000; stroke-width: 0.8"/>
      </g>
     </g>
     <g id="text_5">
      <!-- 0.0 -->
      <g transform="translate(228.208438 134.338673) scale(0.1 -0.1)">
       <use xlink:href="#DejaVuSans-30"/>
       <use xlink:href="#DejaVuSans-2e" x="63.623047"/>
       <use xlink:href="#DejaVuSans-30" x="95.410156"/>
      </g>
     </g>
    </g>
    <g id="xtick_6">
     <g id="line2d_6">
      <g>
       <use xlink:href="#mc8c037ed81" x="276.741818" y="119.740235" style="stroke: #000000; stroke-width: 0.8"/>
      </g>
     </g>
     <g id="text_6">
      <!-- 2.5 -->
      <g transform="translate(268.790256 134.338673) scale(0.1 -0.1)">
       <use xlink:href="#DejaVuSans-32"/>
       <use xlink:href="#DejaVuSans-2e" x="63.623047"/>
       <use xlink:href="#DejaVuSans-35" x="95.410156"/>
      </g>
     </g>
    </g>
    <g id="xtick_7">
     <g id="line2d_7">
      <g>
       <use xlink:href="#mc8c037ed81" x="317.323636" y="119.740235" style="stroke: #000000; stroke-width: 0.8"/>
      </g>
     </g>
     <g id="text_7">
      <!-- 5.0 -->
      <g transform="translate(309.372074 134.338673) scale(0.1 -0.1)">
       <use xlink:href="#DejaVuSans-35"/>
       <use xlink:href="#DejaVuSans-2e" x="63.623047"/>
       <use xlink:href="#DejaVuSans-30" x="95.410156"/>
      </g>
     </g>
    </g>
    <g id="xtick_8">
     <g id="line2d_8">
      <g>
       <use xlink:href="#mc8c037ed81" x="357.905455" y="119.740235" style="stroke: #000000; stroke-width: 0.8"/>
      </g>
     </g>
     <g id="text_8">
      <!-- 7.5 -->
      <g transform="translate(349.953892 134.338673) scale(0.1 -0.1)">
       <use xlink:href="#DejaVuSans-37"/>
       <use xlink:href="#DejaVuSans-2e" x="63.623047"/>
       <use xlink:href="#DejaVuSans-35" x="95.410156"/>
      </g>
     </g>
    </g>
    <g id="xtick_9">
     <g id="line2d_9">
      <g>
       <use xlink:href="#mc8c037ed81" x="398.487273" y="119.740235" style="stroke: #000000; stroke-width: 0.8"/>
      </g>
     </g>
     <g id="text_9">
      <!-- 10.0 -->
      <g transform="translate(387.35446 134.338673) scale(0.1 -0.1)">
       <use xlink:href="#DejaVuSans-31"/>
       <use xlink:href="#DejaVuSans-30" x="63.623047"/>
       <use xlink:href="#DejaVuSans-2e" x="127.246094"/>
       <use xlink:href="#DejaVuSans-30" x="159.033203"/>
      </g>
     </g>
    </g>
   </g>
   <g id="matplotlib.axis_2">
    <g id="ytick_1">
     <g id="line2d_10">
      <defs>
       <path id="m0ed2699a6c" d="M 0 0 
L -3.5 0 
" style="stroke: #000000; stroke-width: 0.8"/>
      </defs>
      <g>
       <use xlink:href="#m0ed2699a6c" x="57.6" y="112.066302" style="stroke: #000000; stroke-width: 0.8"/>
      </g>
     </g>
     <g id="text_10">
      <!-- 0 -->
      <g transform="translate(44.2375 115.865521) scale(0.1 -0.1)">
       <use xlink:href="#DejaVuSans-30"/>
      </g>
     </g>
    </g>
    <g id="ytick_2">
     <g id="line2d_11">
      <g>
       <use xlink:href="#m0ed2699a6c" x="57.6" y="82.664261" style="stroke: #000000; stroke-width: 0.8"/>
      </g>
     </g>
     <g id="text_11">
      <!-- 250 -->
      <g transform="translate(31.5125 86.463479) scale(0.1 -0.1)">
       <use xlink:href="#DejaVuSans-32"/>
       <use xlink:href="#DejaVuSans-35" x="63.623047"/>
       <use xlink:href="#DejaVuSans-30" x="127.246094"/>
      </g>
     </g>
    </g>
    <g id="ytick_3">
     <g id="line2d_12">
      <g>
       <use xlink:href="#m0ed2699a6c" x="57.6" y="53.262219" style="stroke: #000000; stroke-width: 0.8"/>
      </g>
     </g>
     <g id="text_12">
      <!-- 500 -->
      <g transform="translate(31.5125 57.061438) scale(0.1 -0.1)">
       <use xlink:href="#DejaVuSans-35"/>
       <use xlink:href="#DejaVuSans-30" x="63.623047"/>
       <use xlink:href="#DejaVuSans-30" x="127.246094"/>
      </g>
     </g>
    </g>
   </g>
   <g id="line2d_13">
    <path d="M 73.832727 112.066302 
L 90.065455 112.066302 
L 106.298182 112.066302 
L 122.530909 112.066302 
L 138.763636 112.066302 
L 154.996364 112.066302 
L 171.229091 112.066302 
L 187.461818 112.066302 
L 203.694545 112.066302 
L 219.927273 112.066302 
L 236.16 112.066302 
L 252.392727 112.066302 
L 268.625455 112.066302 
L 284.858182 112.066302 
L 301.090909 112.066302 
L 317.323636 112.066302 
L 333.556364 112.066302 
L 349.789091 112.066302 
L 366.021818 112.066302 
L 382.254545 112.066302 
L 398.487273 112.066302 
" clip-path="url(#p7c8ee250b7)" style="fill: none; stroke: #1f77b4; stroke-linecap: square"/>
   </g>
   <g id="patch_3">
    <path d="M 57.6 119.740235 
L 57.6 41.472 
" style="fill: none; stroke: #000000; stroke-width: 0.8; stroke-linejoin: miter; stroke-linecap: square"/>
   </g>
   <g id="patch_4">
    <path d="M 414.72 119.740235 
L 414.72 41.472 
" style="fill: none; stroke: #000000; stroke-width: 0.8; stroke-linejoin: miter; stroke-linecap: square"/>
   </g>
   <g id="patch_5">
    <path d="M 57.6 119.740235 
L 414.72 119.740235 
" style="fill: none; stroke: #000000; stroke-width: 0.8; stroke-linejoin: miter; stroke-linecap: square"/>
   </g>
   <g id="patch_6">
    <path d="M 57.6 41.472 
L 414.72 41.472 
" style="fill: none; stroke: #000000; stroke-width: 0.8; stroke-linejoin: miter; stroke-linecap: square"/>
   </g>
   <g id="text_13">
    <!-- scatter -->
    <g transform="translate(215.195625 35.472) scale(0.12 -0.12)">
     <defs>
      <path id="DejaVuSans-73" d="M 2834 3397 
L 2834 2853 
Q 2591 2978 2328 3040 
Q 2066 3103 1784 3103 
Q 1356 3103 1142 2972 
Q 928 2841 928 2578 
Q 928 2378 1081 2264 
Q 1234 2150 1697 2047 
L 1894 2003 
Q 2506 1872 2764 1633 
Q 3022 1394 3022 966 
Q 3022 478 2636 193 
Q 2250 -91 1575 -91 
Q 1294 -91 989 -36 
Q 684 19 347 128 
L 347 722 
Q 666 556 975 473 
Q 1284 391 1588 391 
Q 1994 391 2212 530 
Q 2431 669 2431 922 
Q 2431 1156 2273 1281 
Q 2116 1406 1581 1522 
L 1381 1569 
Q 847 1681 609 1914 
Q 372 2147 372 2553 
Q 372 3047 722 3315 
Q 1072 3584 1716 3584 
Q 2034 3584 2315 3537 
Q 2597 3491 2834 3397 
z
" transform="scale(0.015625)"/>
      <path id="DejaVuSans-63" d="M 3122 3366 
L 3122 2828 
Q 2878 2963 2633 3030 
Q 2388 3097 2138 3097 
Q 1578 3097 1268 2742 
Q 959 2388 959 1747 
Q 959 1106 1268 751 
Q 1578 397 2138 397 
Q 2388 397 2633 464 
Q 2878 531 3122 666 
L 3122 134 
Q 2881 22 2623 -34 
Q 2366 -91 2075 -91 
Q 1284 -91 818 406 
Q 353 903 353 1747 
Q 353 2603 823 3093 
Q 1294 3584 2113 3584 
Q 2378 3584 2631 3529 
Q 2884 3475 3122 3366 
z
" transform="scale(0.015625)"/>
      <path id="DejaVuSans-61" d="M 2194 1759 
Q 1497 1759 1228 1600 
Q 959 1441 959 1056 
Q 959 750 1161 570 
Q 1363 391 1709 391 
Q 2188 391 2477 730 
Q 2766 1069 2766 1631 
L 2766 1759 
L 2194 1759 
z
M 3341 1997 
L 3341 0 
L 2766 0 
L 2766 531 
Q 2569 213 2275 61 
Q 1981 -91 1556 -91 
Q 1019 -91 701 211 
Q 384 513 384 1019 
Q 384 1609 779 1909 
Q 1175 2209 1959 2209 
L 2766 2209 
L 2766 2266 
Q 2766 2663 2505 2880 
Q 2244 3097 1772 3097 
Q 1472 3097 1187 3025 
Q 903 2953 641 2809 
L 641 3341 
Q 956 3463 1253 3523 
Q 1550 3584 1831 3584 
Q 2591 3584 2966 3190 
Q 3341 2797 3341 1997 
z
" transform="scale(0.015625)"/>
      <path id="DejaVuSans-74" d="M 1172 4494 
L 1172 3500 
L 2356 3500 
L 2356 3053 
L 1172 3053 
L 1172 1153 
Q 1172 725 1289 603 
Q 1406 481 1766 481 
L 2356 481 
L 2356 0 
L 1766 0 
Q 1100 0 847 248 
Q 594 497 594 1153 
L 594 3053 
L 172 3053 
L 172 3500 
L 594 3500 
L 594 4494 
L 1172 4494 
z
" transform="scale(0.015625)"/>
      <path id="DejaVuSans-65" d="M 3597 1894 
L 3597 1613 
L 953 1613 
Q 991 1019 1311 708 
Q 1631 397 2203 397 
Q 2534 397 2845 478 
Q 3156 559 3463 722 
L 3463 178 
Q 3153 47 2828 -22 
Q 2503 -91 2169 -91 
Q 1331 -91 842 396 
Q 353 884 353 1716 
Q 353 2575 817 3079 
Q 1281 3584 2069 3584 
Q 2775 3584 3186 3129 
Q 3597 2675 3597 1894 
z
M 3022 2063 
Q 3016 2534 2758 2815 
Q 2500 3097 2075 3097 
Q 1594 3097 1305 2825 
Q 1016 2553 972 2059 
L 3022 2063 
z
" transform="scale(0.015625)"/>
      <path id="DejaVuSans-72" d="M 2631 2963 
Q 2534 3019 2420 3045 
Q 2306 3072 2169 3072 
Q 1681 3072 1420 2755 
Q 1159 2438 1159 1844 
L 1159 0 
L 581 0 
L 581 3500 
L 1159 3500 
L 1159 2956 
Q 1341 3275 1631 3429 
Q 1922 3584 2338 3584 
Q 2397 3584 2469 3576 
Q 2541 3569 2628 3553 
L 2631 2963 
z
" transform="scale(0.015625)"/>
     </defs>
     <use xlink:href="#DejaVuSans-73"/>
     <use xlink:href="#DejaVuSans-63" x="52.099609"/>
     <use xlink:href="#DejaVuSans-61" x="107.080078"/>
     <use xlink:href="#DejaVuSans-74" x="168.359375"/>
     <use xlink:href="#DejaVuSans-74" x="207.568359"/>
     <use xlink:href="#DejaVuSans-65" x="246.777344"/>
     <use xlink:href="#DejaVuSans-72" x="308.300781"/>
    </g>
   </g>
  </g>
  <g id="axes_2">
   <g id="patch_7">
    <path d="M 57.6 307.584 
L 414.72 307.584 
L 414.72 186.624 
L 57.6 186.624 
z
" style="fill: #ffffff"/>
   </g>
   <g id="patch_8">
    <path d="M 73.832727 295.724285 
L 86.319441 295.724285 
L 86.319441 228.473797 
L 73.832727 228.473797 
z
" clip-path="url(#p0b6180629e)" style="fill: #1f77b4"/>
   </g>
   <g id="patch_9">
    <path d="M 89.441119 295.724285 
L 101.927832 295.724285 
L 101.927832 243.923234 
L 89.441119 243.923234 
z
" clip-path="url(#p0b6180629e)" style="fill: #1f77b4"/>
   </g>
   <g id="patch_10">
    <path d="M 105.04951 295.724285 
L 117.536224 295.724285 
L 117.536224 257.555089 
L 105.04951 257.555089 
z
" clip-path="url(#p0b6180629e)" style="fill: #1f77b4"/>
   </g>
   <g id="patch_11">
    <path d="M 120.657902 295.724285 
L 133.144615 295.724285 
L 133.144615 269.369364 
L 120.657902 269.369364 
z
" clip-path="url(#p0b6180629e)" style="fill: #1f77b4"/>
   </g>
   <g id="patch_12">
    <path d="M 136.266294 295.724285 
L 148.753007 295.724285 
L 148.753007 279.366059 
L 136.266294 279.366059 
z
" clip-path="url(#p0b6180629e)" style="fill: #1f77b4"/>
   </g>
   <g id="patch_13">
    <path d="M 151.874685 295.724285 
L 164.361399 295.724285 
L 164.361399 287.545172 
L 151.874685 287.545172 
z
" clip-path="url(#p0b6180629e)" style="fill: #1f77b4"/>
   </g>
   <g id="patch_14">
    <path d="M 167.483077 295.724285 
L 179.96979 295.724285 
L 179.96979 293.906705 
L 167.483077 293.906705 
z
" clip-path="url(#p0b6180629e)" style="fill: #1f77b4"/>
   </g>
   <g id="patch_15">
    <path d="M 183.091469 295.724285 
L 195.578182 295.724285 
L 195.578182 298.450657 
L 183.091469 298.450657 
z
" clip-path="url(#p0b6180629e)" style="fill: #1f77b4"/>
   </g>
   <g id="patch_16">
    <path d="M 198.69986 295.724285 
L 211.186573 295.724285 
L 211.186573 301.177028 
L 198.69986 301.177028 
z
" clip-path="url(#p0b6180629e)" style="fill: #1f77b4"/>
   </g>
   <g id="patch_17">
    <path d="M 214.308252 295.724285 
L 226.794965 295.724285 
L 226.794965 302.085818 
L 214.308252 302.085818 
z
" clip-path="url(#p0b6180629e)" style="fill: #1f77b4"/>
   </g>
   <g id="patch_18">
    <path d="M 229.916643 295.724285 
L 242.403357 295.724285 
L 242.403357 301.177028 
L 229.916643 301.177028 
z
" clip-path="url(#p0b6180629e)" style="fill: #1f77b4"/>
   </g>
   <g id="patch_19">
    <path d="M 245.525035 295.724285 
L 258.011748 295.724285 
L 258.011748 298.450657 
L 245.525035 298.450657 
z
" clip-path="url(#p0b6180629e)" style="fill: #1f77b4"/>
   </g>
   <g id="patch_20">
    <path d="M 261.133427 295.724285 
L 273.62014 295.724285 
L 273.62014 293.906705 
L 261.133427 293.906705 
z
" clip-path="url(#p0b6180629e)" style="fill: #1f77b4"/>
   </g>
   <g id="patch_21">
    <path d="M 276.741818 295.724285 
L 289.228531 295.724285 
L 289.228531 287.545172 
L 276.741818 287.545172 
z
" clip-path="url(#p0b6180629e)" style="fill: #1f77b4"/>
   </g>
   <g id="patch_22">
    <path d="M 292.35021 295.724285 
L 304.836923 295.724285 
L 304.836923 279.366059 
L 292.35021 279.366059 
z
" clip-path="url(#p0b6180629e)" style="fill: #1f77b4"/>
   </g>
   <g id="patch_23">
    <path d="M 307.958601 295.724285 
L 320.445315 295.724285 
L 320.445315 269.369364 
L 307.958601 269.369364 
z
" clip-path="url(#p0b6180629e)" style="fill: #1f77b4"/>
   </g>
   <g id="patch_24">
    <path d="M 323.566993 295.724285 
L 336.053706 295.724285 
L 336.053706 257.555089 
L 323.566993 257.555089 
z
" clip-path="url(#p0b6180629e)" style="fill: #1f77b4"/>
   </g>
   <g id="patch_25">
    <path d="M 339.175385 295.724285 
L 351.662098 295.724285 
L 351.662098 243.923234 
L 339.175385 243.923234 
z
" clip-path="url(#p0b6180629e)" style="fill: #1f77b4"/>
   </g>
   <g id="patch_26">
    <path d="M 354.783776 295.724285 
L 367.27049 295.724285 
L 367.27049 228.473797 
L 354.783776 228.473797 
z
" clip-path="url(#p0b6180629e)" style="fill: #1f77b4"/>
   </g>
   <g id="patch_27">
    <path d="M 370.392168 295.724285 
L 382.878881 295.724285 
L 382.878881 211.20678 
L 370.392168 211.20678 
z
" clip-path="url(#p0b6180629e)" style="fill: #1f77b4"/>
   </g>
   <g id="patch_28">
    <path d="M 386.000559 295.724285 
L 398.487273 295.724285 
L 398.487273 192.122182 
L 386.000559 192.122182 
z
" clip-path="url(#p0b6180629e)" style="fill: #1f77b4"/>
   </g>
   <g id="patch_29">
    <path d="M 78.515245 295.724285 
L 81.636923 295.724285 
L 81.636923 262.099041 
L 78.515245 262.099041 
z
" clip-path="url(#p0b6180629e)" style="fill: #ff7f0e"/>
   </g>
   <g id="patch_30">
    <path d="M 94.123636 295.724285 
L 97.245315 295.724285 
L 97.245315 269.82376 
L 94.123636 269.82376 
z
" clip-path="url(#p0b6180629e)" style="fill: #ff7f0e"/>
   </g>
   <g id="patch_31">
    <path d="M 109.732028 295.724285 
L 112.853706 295.724285 
L 112.853706 276.639687 
L 109.732028 276.639687 
z
" clip-path="url(#p0b6180629e)" style="fill: #ff7f0e"/>
   </g>
   <g id="patch_32">
    <path d="M 125.34042 295.724285 
L 128.462098 295.724285 
L 128.462098 282.546825 
L 125.34042 282.546825 
z
" clip-path="url(#p0b6180629e)" style="fill: #ff7f0e"/>
   </g>
   <g id="patch_33">
    <path d="M 140.948811 295.724285 
L 144.07049 295.724285 
L 144.07049 287.545172 
L 140.948811 287.545172 
z
" clip-path="url(#p0b6180629e)" style="fill: #ff7f0e"/>
   </g>
   <g id="patch_34">
    <path d="M 156.557203 295.724285 
L 159.678881 295.724285 
L 159.678881 291.634729 
L 156.557203 291.634729 
z
" clip-path="url(#p0b6180629e)" style="fill: #ff7f0e"/>
   </g>
   <g id="patch_35">
    <path d="M 172.165594 295.724285 
L 175.287273 295.724285 
L 175.287273 294.815495 
L 172.165594 294.815495 
z
" clip-path="url(#p0b6180629e)" style="fill: #ff7f0e"/>
   </g>
   <g id="patch_36">
    <path d="M 187.773986 295.724285 
L 190.895664 295.724285 
L 190.895664 297.087471 
L 187.773986 297.087471 
z
" clip-path="url(#p0b6180629e)" style="fill: #ff7f0e"/>
   </g>
   <g id="patch_37">
    <path d="M 203.382378 295.724285 
L 206.504056 295.724285 
L 206.504056 298.450657 
L 203.382378 298.450657 
z
" clip-path="url(#p0b6180629e)" style="fill: #ff7f0e"/>
   </g>
   <g id="patch_38">
    <path d="M 218.990769 295.724285 
L 222.112448 295.724285 
L 222.112448 298.905052 
L 218.990769 298.905052 
z
" clip-path="url(#p0b6180629e)" style="fill: #ff7f0e"/>
   </g>
   <g id="patch_39">
    <path d="M 234.599161 295.724285 
L 237.720839 295.724285 
L 237.720839 298.450657 
L 234.599161 298.450657 
z
" clip-path="url(#p0b6180629e)" style="fill: #ff7f0e"/>
   </g>
   <g id="patch_40">
    <path d="M 250.207552 295.724285 
L 253.329231 295.724285 
L 253.329231 297.087471 
L 250.207552 297.087471 
z
" clip-path="url(#p0b6180629e)" style="fill: #ff7f0e"/>
   </g>
   <g id="patch_41">
    <path d="M 265.815944 295.724285 
L 268.937622 295.724285 
L 268.937622 294.815495 
L 265.815944 294.815495 
z
" clip-path="url(#p0b6180629e)" style="fill: #ff7f0e"/>
   </g>
   <g id="patch_42">
    <path d="M 281.424336 295.724285 
L 284.546014 295.724285 
L 284.546014 291.634729 
L 281.424336 291.634729 
z
" clip-path="url(#p0b6180629e)" style="fill: #ff7f0e"/>
   </g>
   <g id="patch_43">
    <path d="M 297.032727 295.724285 
L 300.154406 295.724285 
L 300.154406 287.545172 
L 297.032727 287.545172 
z
" clip-path="url(#p0b6180629e)" style="fill: #ff7f0e"/>
   </g>
   <g id="patch_44">
    <path d="M 312.641119 295.724285 
L 315.762797 295.724285 
L 315.762797 282.546825 
L 312.641119 282.546825 
z
" clip-path="url(#p0b6180629e)" style="fill: #ff7f0e"/>
   </g>
   <g id="patch_45">
    <path d="M 328.24951 295.724285 
L 331.371189 295.724285 
L 331.371189 276.639687 
L 328.24951 276.639687 
z
" clip-path="url(#p0b6180629e)" style="fill: #ff7f0e"/>
   </g>
   <g id="patch_46">
    <path d="M 343.857902 295.724285 
L 346.97958 295.724285 
L 346.97958 269.82376 
L 343.857902 269.82376 
z
" clip-path="url(#p0b6180629e)" style="fill: #ff7f0e"/>
   </g>
   <g id="patch_47">
    <path d="M 359.466294 295.724285 
L 362.587972 295.724285 
L 362.587972 262.099041 
L 359.466294 262.099041 
z
" clip-path="url(#p0b6180629e)" style="fill: #ff7f0e"/>
   </g>
   <g id="patch_48">
    <path d="M 375.074685 295.724285 
L 378.196364 295.724285 
L 378.196364 253.465533 
L 375.074685 253.465533 
z
" clip-path="url(#p0b6180629e)" style="fill: #ff7f0e"/>
   </g>
   <g id="patch_49">
    <path d="M 390.683077 295.724285 
L 393.804755 295.724285 
L 393.804755 243.923234 
L 390.683077 243.923234 
z
" clip-path="url(#p0b6180629e)" style="fill: #ff7f0e"/>
   </g>
   <g id="matplotlib.axis_3">
    <g id="xtick_10">
     <g id="line2d_14">
      <g>
       <use xlink:href="#mc8c037ed81" x="80.076084" y="307.584" style="stroke: #000000; stroke-width: 0.8"/>
      </g>
     </g>
     <g id="text_14">
      <!-- −10 -->
      <g transform="translate(69.52374 322.182437) scale(0.1 -0.1)">
       <use xlink:href="#DejaVuSans-2212"/>
       <use xlink:href="#DejaVuSans-31" x="83.789062"/>
       <use xlink:href="#DejaVuSans-30" x="147.412109"/>
      </g>
     </g>
    </g>
    <g id="xtick_11">
     <g id="line2d_15">
      <g>
       <use xlink:href="#mc8c037ed81" x="158.118042" y="307.584" style="stroke: #000000; stroke-width: 0.8"/>
      </g>
     </g>
     <g id="text_15">
      <!-- −5 -->
      <g transform="translate(150.746948 322.182437) scale(0.1 -0.1)">
       <use xlink:href="#DejaVuSans-2212"/>
       <use xlink:href="#DejaVuSans-35" x="83.789062"/>
      </g>
     </g>
    </g>
    <g id="xtick_12">
     <g id="line2d_16">
      <g>
       <use xlink:href="#mc8c037ed81" x="236.16" y="307.584" style="stroke: #000000; stroke-width: 0.8"/>
      </g>
     </g>
     <g id="text_16">
      <!-- 0 -->
      <g transform="translate(232.97875 322.182437) scale(0.1 -0.1)">
       <use xlink:href="#DejaVuSans-30"/>
      </g>
     </g>
    </g>
    <g id="xtick_13">
     <g id="line2d_17">
      <g>
       <use xlink:href="#mc8c037ed81" x="314.201958" y="307.584" style="stroke: #000000; stroke-width: 0.8"/>
      </g>
     </g>
     <g id="text_17">
      <!-- 5 -->
      <g transform="translate(311.020708 322.182437) scale(0.1 -0.1)">
       <use xlink:href="#DejaVuSans-35"/>
      </g>
     </g>
    </g>
    <g id="xtick_14">
     <g id="line2d_18">
      <g>
       <use xlink:href="#mc8c037ed81" x="392.243916" y="307.584" style="stroke: #000000; stroke-width: 0.8"/>
      </g>
     </g>
     <g id="text_18">
      <!-- 10 -->
      <g transform="translate(385.881416 322.182437) scale(0.1 -0.1)">
       <use xlink:href="#DejaVuSans-31"/>
       <use xlink:href="#DejaVuSans-30" x="63.623047"/>
      </g>
     </g>
    </g>
   </g>
   <g id="matplotlib.axis_4">
    <g id="ytick_4">
     <g id="line2d_19">
      <g>
       <use xlink:href="#m0ed2699a6c" x="57.6" y="295.724285" style="stroke: #000000; stroke-width: 0.8"/>
      </g>
     </g>
     <g id="text_19">
      <!-- 0 -->
      <g transform="translate(44.2375 299.523504) scale(0.1 -0.1)">
       <use xlink:href="#DejaVuSans-30"/>
      </g>
     </g>
    </g>
    <g id="ytick_5">
     <g id="line2d_20">
      <g>
       <use xlink:href="#m0ed2699a6c" x="57.6" y="259.37267" style="stroke: #000000; stroke-width: 0.8"/>
      </g>
     </g>
     <g id="text_20">
      <!-- 200 -->
      <g transform="translate(31.5125 263.171889) scale(0.1 -0.1)">
       <use xlink:href="#DejaVuSans-32"/>
       <use xlink:href="#DejaVuSans-30" x="63.623047"/>
       <use xlink:href="#DejaVuSans-30" x="127.246094"/>
      </g>
     </g>
    </g>
    <g id="ytick_6">
     <g id="line2d_21">
      <g>
       <use xlink:href="#m0ed2699a6c" x="57.6" y="223.021055" style="stroke: #000000; stroke-width: 0.8"/>
      </g>
     </g>
     <g id="text_21">
      <!-- 400 -->
      <g transform="translate(31.5125 226.820274) scale(0.1 -0.1)">
       <defs>
        <path id="DejaVuSans-34" d="M 2419 4116 
L 825 1625 
L 2419 1625 
L 2419 4116 
z
M 2253 4666 
L 3047 4666 
L 3047 1625 
L 3713 1625 
L 3713 1100 
L 3047 1100 
L 3047 0 
L 2419 0 
L 2419 1100 
L 313 1100 
L 313 1709 
L 2253 4666 
z
" transform="scale(0.015625)"/>
       </defs>
       <use xlink:href="#DejaVuSans-34"/>
       <use xlink:href="#DejaVuSans-30" x="63.623047"/>
       <use xlink:href="#DejaVuSans-30" x="127.246094"/>
      </g>
     </g>
    </g>
    <g id="ytick_7">
     <g id="line2d_22">
      <g>
       <use xlink:href="#m0ed2699a6c" x="57.6" y="186.66944" style="stroke: #000000; stroke-width: 0.8"/>
      </g>
     </g>
     <g id="text_22">
      <!-- 600 -->
      <g transform="translate(31.5125 190.468658) scale(0.1 -0.1)">
       <defs>
        <path id="DejaVuSans-36" d="M 2113 2584 
Q 1688 2584 1439 2293 
Q 1191 2003 1191 1497 
Q 1191 994 1439 701 
Q 1688 409 2113 409 
Q 2538 409 2786 701 
Q 3034 994 3034 1497 
Q 3034 2003 2786 2293 
Q 2538 2584 2113 2584 
z
M 3366 4563 
L 3366 3988 
Q 3128 4100 2886 4159 
Q 2644 4219 2406 4219 
Q 1781 4219 1451 3797 
Q 1122 3375 1075 2522 
Q 1259 2794 1537 2939 
Q 1816 3084 2150 3084 
Q 2853 3084 3261 2657 
Q 3669 2231 3669 1497 
Q 3669 778 3244 343 
Q 2819 -91 2113 -91 
Q 1303 -91 875 529 
Q 447 1150 447 2328 
Q 447 3434 972 4092 
Q 1497 4750 2381 4750 
Q 2619 4750 2861 4703 
Q 3103 4656 3366 4563 
z
" transform="scale(0.015625)"/>
       </defs>
       <use xlink:href="#DejaVuSans-36"/>
       <use xlink:href="#DejaVuSans-30" x="63.623047"/>
       <use xlink:href="#DejaVuSans-30" x="127.246094"/>
      </g>
     </g>
    </g>
   </g>
   <g id="line2d_23">
    <path d="M 80.076084 295.724285 
L 95.684476 295.724285 
L 111.292867 295.724285 
L 126.901259 295.724285 
L 142.50965 295.724285 
L 158.118042 295.724285 
L 173.726434 295.724285 
L 189.334825 295.724285 
L 204.943217 295.724285 
L 220.551608 295.724285 
L 236.16 295.724285 
L 251.768392 295.724285 
L 267.376783 295.724285 
L 282.985175 295.724285 
L 298.593566 295.724285 
L 314.201958 295.724285 
L 329.81035 295.724285 
L 345.418741 295.724285 
L 361.027133 295.724285 
L 376.635524 295.724285 
L 392.243916 295.724285 
" clip-path="url(#p0b6180629e)" style="fill: none; stroke: #1f77b4; stroke-width: 1.5; stroke-linecap: square"/>
   </g>
   <g id="patch_50">
    <path d="M 57.6 307.584 
L 57.6 186.624 
" style="fill: none; stroke: #000000; stroke-width: 0.8; stroke-linejoin: miter; stroke-linecap: square"/>
   </g>
   <g id="patch_51">
    <path d="M 414.72 307.584 
L 414.72 186.624 
" style="fill: none; stroke: #000000; stroke-width: 0.8; stroke-linejoin: miter; stroke-linecap: square"/>
   </g>
   <g id="patch_52">
    <path d="M 57.6 307.584 
L 414.72 307.584 
" style="fill: none; stroke: #000000; stroke-width: 0.8; stroke-linejoin: miter; stroke-linecap: square"/>
   </g>
   <g id="patch_53">
    <path d="M 57.6 186.624 
L 414.72 186.624 
" style="fill: none; stroke: #000000; stroke-width: 0.8; stroke-linejoin: miter; stroke-linecap: square"/>
   </g>
   <g id="text_23">
    <!-- bar -->
    <g transform="translate(226.2075 180.624) scale(0.12 -0.12)">
     <defs>
      <path id="DejaVuSans-62" d="M 3116 1747 
Q 3116 2381 2855 2742 
Q 2594 3103 2138 3103 
Q 1681 3103 1420 2742 
Q 1159 2381 1159 1747 
Q 1159 1113 1420 752 
Q 1681 391 2138 391 
Q 2594 391 2855 752 
Q 3116 1113 3116 1747 
z
M 1159 2969 
Q 1341 3281 1617 3432 
Q 1894 3584 2278 3584 
Q 2916 3584 3314 3078 
Q 3713 2572 3713 1747 
Q 3713 922 3314 415 
Q 2916 -91 2278 -91 
Q 1894 -91 1617 61 
Q 1341 213 1159 525 
L 1159 0 
L 581 0 
L 581 4863 
L 1159 4863 
L 1159 2969 
z
" transform="scale(0.015625)"/>
     </defs>
     <use xlink:href="#DejaVuSans-62"/>
     <use xlink:href="#DejaVuSans-61" x="63.476562"/>
     <use xlink:href="#DejaVuSans-72" x="124.755859"/>
    </g>
   </g>
  </g>
 </g>
 <defs>
  <clipPath id="p7c8ee250b7">
   <rect x="57.6" y="41.472" width="357.12" height="78.268235"/>
  </clipPath>
  <clipPath id="p0b6180629e">
   <rect x="57.6" y="186.624" width="357.12" height="120.96"/>
  </clipPath>
 </defs>
</svg>
